<?xml version="1.0" encoding="UTF-8" standalone="no"?>
<!DOCTYPE svg PUBLIC "-//W3C//DTD SVG 1.1//EN"
 "http://www.w3.org/Graphics/SVG/1.1/DTD/svg11.dtd">
<!-- Generated by graphviz version 2.40.1 (20161225.0304)
 -->
<!-- Title: G Pages: 1 -->
<svg width="1876pt" height="512pt"
 viewBox="0.00 0.00 1876.00 512.00" xmlns="http://www.w3.org/2000/svg" xmlns:xlink="http://www.w3.org/1999/xlink">
<g id="graph0" class="graph" transform="scale(1 1) rotate(0) translate(4 508)">
<title>G</title>
<polygon fill="#ffffff" stroke="transparent" points="-4,4 -4,-508 1872,-508 1872,4 -4,4"/>
<!-- 0 -->
<g id="node1" class="node">
<title>0</title>
<ellipse fill="none" stroke="#000000" cx="22" cy="-385.2" rx="18" ry="18"/>
<ellipse fill="none" stroke="#000000" cx="22" cy="-385.2" rx="22" ry="22"/>
<text text-anchor="middle" x="22" y="-381" font-family="Times,serif" font-size="14.00" fill="#000000">0</text>
</g>
<!-- t -->
<g id="node2" class="node">
<title>t</title>
<ellipse fill="none" stroke="#000000" cx="46" cy="-288.4" rx="18" ry="18"/>
<text text-anchor="middle" x="46" y="-284.2" font-family="Times,serif" font-size="14.00" fill="#000000">t</text>
</g>
<!-- 0&#45;&#45;t -->
<g id="edge1" class="edge">
<title>0&#45;&#45;t</title>
<path fill="none" stroke="#000000" d="M26.1383,-363.5246C28.2803,-352.8919 31.0596,-339.9237 34,-328.4 35.9001,-320.9534 38.2841,-312.8156 40.4254,-305.8357"/>
<text text-anchor="middle" x="41" y="-332.6" font-family="Times,serif" font-size="14.00" fill="#000000">70</text>
</g>
<!-- 1 -->
<g id="node3" class="node">
<title>1</title>
<ellipse fill="none" stroke="#000000" cx="480" cy="-288.4" rx="18" ry="18"/>
<ellipse fill="none" stroke="#000000" cx="480" cy="-288.4" rx="22" ry="22"/>
<text text-anchor="middle" x="480" y="-284.2" font-family="Times,serif" font-size="14.00" fill="#000000">1</text>
</g>
<!-- l -->
<g id="node4" class="node">
<title>l</title>
<ellipse fill="none" stroke="#000000" cx="530" cy="-195.6" rx="18" ry="18"/>
<text text-anchor="middle" x="530" y="-191.4" font-family="Times,serif" font-size="14.00" fill="#000000">l</text>
</g>
<!-- 1&#45;&#45;l -->
<g id="edge2" class="edge">
<title>1&#45;&#45;l</title>
<path fill="none" stroke="#000000" d="M490.6037,-268.7195C499.7769,-251.6941 512.8728,-227.3882 521.4047,-211.5529"/>
<text text-anchor="middle" x="517" y="-235.8" font-family="Times,serif" font-size="14.00" fill="#000000">26</text>
</g>
<!-- r -->
<g id="node5" class="node">
<title>r</title>
<ellipse fill="none" stroke="#000000" cx="501" cy="-106.8" rx="18" ry="18"/>
<text text-anchor="middle" x="501" y="-102.6" font-family="Times,serif" font-size="14.00" fill="#000000">r</text>
</g>
<!-- 1&#45;&#45;r -->
<g id="edge3" class="edge">
<title>1&#45;&#45;r</title>
<path fill="none" stroke="#000000" d="M481.2303,-266.2685C482.6091,-243.8614 485.1663,-208.2402 489,-177.6 491.2753,-159.4153 494.8942,-138.7699 497.5636,-124.4858"/>
<text text-anchor="middle" x="496" y="-191.4" font-family="Times,serif" font-size="14.00" fill="#000000">14</text>
</g>
<!-- l&#45;&#45;r -->
<g id="edge63" class="edge">
<title>l&#45;&#45;r</title>
<path fill="none" stroke="#000000" d="M524.4085,-178.4785C519.3062,-162.8548 511.8011,-139.8736 506.6733,-124.172"/>
<text text-anchor="middle" x="526" y="-147" font-family="Times,serif" font-size="14.00" fill="#000000">40</text>
</g>
<!-- 2 -->
<g id="node6" class="node">
<title>2</title>
<ellipse fill="none" stroke="#000000" cx="913" cy="-482" rx="18" ry="18"/>
<ellipse fill="none" stroke="#000000" cx="913" cy="-482" rx="22" ry="22"/>
<text text-anchor="middle" x="913" y="-477.8" font-family="Times,serif" font-size="14.00" fill="#000000">2</text>
</g>
<!-- B -->
<g id="node7" class="node">
<title>B</title>
<polygon fill="none" stroke="#000000" points="1038,-403.2 984,-403.2 984,-367.2 1038,-367.2 1038,-403.2"/>
<text text-anchor="middle" x="1011" y="-381" font-family="Times,serif" font-size="14.00" fill="#000000">B</text>
</g>
<!-- 2&#45;&#45;B -->
<g id="edge4" class="edge">
<title>2&#45;&#45;B</title>
<path fill="none" stroke="#000000" d="M928.7454,-466.4474C946.1676,-449.2386 974.2095,-421.54 992.6227,-403.3523"/>
<text text-anchor="middle" x="975" y="-429.4" font-family="Times,serif" font-size="14.00" fill="#000000">45</text>
</g>
<!-- R -->
<g id="node8" class="node">
<title>R</title>
<polygon fill="none" stroke="#000000" points="964,-306.4 910,-306.4 910,-270.4 964,-270.4 964,-306.4"/>
<text text-anchor="middle" x="937" y="-284.2" font-family="Times,serif" font-size="14.00" fill="#000000">R</text>
</g>
<!-- 2&#45;&#45;R -->
<g id="edge5" class="edge">
<title>2&#45;&#45;R</title>
<path fill="none" stroke="#000000" d="M902.9631,-462.4111C892.1413,-438.6569 877.7553,-397.5346 888,-363.2 894.3918,-341.7781 909.0968,-320.7887 920.7401,-306.5232"/>
<text text-anchor="middle" x="895" y="-381" font-family="Times,serif" font-size="14.00" fill="#000000">19</text>
</g>
<!-- B&#45;&#45;R -->
<g id="edge10" class="edge">
<title>B&#45;&#45;R</title>
<path fill="none" stroke="#000000" d="M997.0812,-366.9927C983.8511,-349.6864 964.0658,-323.805 950.8564,-306.5257"/>
<text text-anchor="middle" x="986" y="-332.6" font-family="Times,serif" font-size="14.00" fill="#000000">64</text>
</g>
<!-- p -->
<g id="node15" class="node">
<title>p</title>
<ellipse fill="none" stroke="#000000" cx="1005" cy="-288.4" rx="18" ry="18"/>
<text text-anchor="middle" x="1005" y="-284.2" font-family="Times,serif" font-size="14.00" fill="#000000">p</text>
</g>
<!-- B&#45;&#45;p -->
<g id="edge11" class="edge">
<title>B&#45;&#45;p</title>
<path fill="none" stroke="#000000" d="M1009.8714,-366.9927C1008.7987,-349.6864 1007.1945,-323.805 1006.1235,-306.5257"/>
<text text-anchor="middle" x="1012.5" y="-332.6" font-family="Times,serif" font-size="14.00" fill="#000000">7</text>
</g>
<!-- q -->
<g id="node16" class="node">
<title>q</title>
<ellipse fill="none" stroke="#000000" cx="1063" cy="-195.6" rx="18" ry="18"/>
<text text-anchor="middle" x="1063" y="-191.4" font-family="Times,serif" font-size="14.00" fill="#000000">q</text>
</g>
<!-- B&#45;&#45;q -->
<g id="edge12" class="edge">
<title>B&#45;&#45;q</title>
<path fill="none" stroke="#000000" d="M1016.1427,-367.0762C1020.4256,-351.9365 1026.6641,-329.7761 1032,-310.4 1041.4823,-275.9669 1052.3058,-235.6454 1058.3274,-213.1189"/>
<text text-anchor="middle" x="1051" y="-284.2" font-family="Times,serif" font-size="14.00" fill="#000000">33</text>
</g>
<!-- 3 -->
<g id="node9" class="node">
<title>3</title>
<ellipse fill="none" stroke="#000000" cx="1589" cy="-482" rx="18" ry="18"/>
<ellipse fill="none" stroke="#000000" cx="1589" cy="-482" rx="22" ry="22"/>
<text text-anchor="middle" x="1589" y="-477.8" font-family="Times,serif" font-size="14.00" fill="#000000">3</text>
</g>
<!-- H -->
<g id="node10" class="node">
<title>H</title>
<polygon fill="none" stroke="#000000" points="1652,-403.2 1598,-403.2 1598,-367.2 1652,-367.2 1652,-403.2"/>
<text text-anchor="middle" x="1625" y="-381" font-family="Times,serif" font-size="14.00" fill="#000000">H</text>
</g>
<!-- 3&#45;&#45;H -->
<g id="edge6" class="edge">
<title>3&#45;&#45;H</title>
<path fill="none" stroke="#000000" d="M1596.8115,-460.9958C1603.2221,-443.7584 1612.2036,-419.6082 1618.2926,-403.2353"/>
<text text-anchor="middle" x="1620.5" y="-429.4" font-family="Times,serif" font-size="14.00" fill="#000000">133</text>
</g>
<!-- Q -->
<g id="node11" class="node">
<title>Q</title>
<polygon fill="none" stroke="#000000" points="1597,-306.4 1543,-306.4 1543,-270.4 1597,-270.4 1597,-306.4"/>
<text text-anchor="middle" x="1570" y="-284.2" font-family="Times,serif" font-size="14.00" fill="#000000">Q</text>
</g>
<!-- 3&#45;&#45;Q -->
<g id="edge7" class="edge">
<title>3&#45;&#45;Q</title>
<path fill="none" stroke="#000000" d="M1584.1353,-460.52C1580.9725,-445.6354 1577.0657,-425.3146 1575,-407.2 1570.9537,-371.7171 1570.0928,-329.938 1569.96,-306.5767"/>
<text text-anchor="middle" x="1582" y="-381" font-family="Times,serif" font-size="14.00" fill="#000000">89</text>
</g>
<!-- H&#45;&#45;Q -->
<g id="edge26" class="edge">
<title>H&#45;&#45;Q</title>
<path fill="none" stroke="#000000" d="M1614.6549,-366.9927C1604.8218,-349.6864 1590.1165,-323.805 1580.2987,-306.5257"/>
<text text-anchor="middle" x="1608" y="-332.6" font-family="Times,serif" font-size="14.00" fill="#000000">50</text>
</g>
<!-- g -->
<g id="node32" class="node">
<title>g</title>
<ellipse fill="none" stroke="#000000" cx="1640" cy="-288.4" rx="18" ry="18"/>
<text text-anchor="middle" x="1640" y="-284.2" font-family="Times,serif" font-size="14.00" fill="#000000">g</text>
</g>
<!-- H&#45;&#45;g -->
<g id="edge27" class="edge">
<title>H&#45;&#45;g</title>
<path fill="none" stroke="#000000" d="M1627.8214,-366.9927C1630.5201,-349.5768 1634.5645,-323.477 1637.2419,-306.1986"/>
<text text-anchor="middle" x="1637.5" y="-332.6" font-family="Times,serif" font-size="14.00" fill="#000000">3</text>
</g>
<!-- A -->
<g id="node12" class="node">
<title>A</title>
<polygon fill="none" stroke="#000000" points="414,-500 360,-500 360,-464 414,-464 414,-500"/>
<text text-anchor="middle" x="387" y="-477.8" font-family="Times,serif" font-size="14.00" fill="#000000">A</text>
</g>
<!-- O -->
<g id="node13" class="node">
<title>O</title>
<polygon fill="none" stroke="#000000" points="380,-403.2 326,-403.2 326,-367.2 380,-367.2 380,-403.2"/>
<text text-anchor="middle" x="353" y="-381" font-family="Times,serif" font-size="14.00" fill="#000000">O</text>
</g>
<!-- A&#45;&#45;O -->
<g id="edge8" class="edge">
<title>A&#45;&#45;O</title>
<path fill="none" stroke="#000000" d="M380.6049,-463.7927C374.5262,-446.4864 365.4356,-420.605 359.3665,-403.3257"/>
<text text-anchor="middle" x="380" y="-429.4" font-family="Times,serif" font-size="14.00" fill="#000000">16</text>
</g>
<!-- Z -->
<g id="node14" class="node">
<title>Z</title>
<polygon fill="none" stroke="#000000" points="452,-403.2 398,-403.2 398,-367.2 452,-367.2 452,-403.2"/>
<text text-anchor="middle" x="425" y="-381" font-family="Times,serif" font-size="14.00" fill="#000000">Z</text>
</g>
<!-- A&#45;&#45;Z -->
<g id="edge9" class="edge">
<title>A&#45;&#45;Z</title>
<path fill="none" stroke="#000000" d="M394.1475,-463.7927C400.9413,-446.4864 411.1014,-420.605 417.8845,-403.3257"/>
<text text-anchor="middle" x="416" y="-429.4" font-family="Times,serif" font-size="14.00" fill="#000000">14</text>
</g>
<!-- p&#45;&#45;q -->
<g id="edge66" class="edge">
<title>p&#45;&#45;q</title>
<path fill="none" stroke="#000000" d="M1011.2682,-271.3113C1015.9072,-259.6615 1022.8237,-244.1354 1031,-231.6 1036.3907,-223.3353 1043.6107,-215.0409 1049.8283,-208.5002"/>
<text text-anchor="middle" x="1038" y="-235.8" font-family="Times,serif" font-size="14.00" fill="#000000">30</text>
</g>
<!-- x -->
<g id="node31" class="node">
<title>x</title>
<ellipse fill="none" stroke="#000000" cx="1121" cy="-106.8" rx="18" ry="18"/>
<text text-anchor="middle" x="1121" y="-102.6" font-family="Times,serif" font-size="14.00" fill="#000000">x</text>
</g>
<!-- q&#45;&#45;x -->
<g id="edge67" class="edge">
<title>q&#45;&#45;x</title>
<path fill="none" stroke="#000000" d="M1071.346,-179.5315C1077.0671,-168.8798 1085.0361,-154.7234 1093,-142.8 1098.0134,-135.2939 1104.1143,-127.334 1109.3399,-120.813"/>
<text text-anchor="middle" x="1100" y="-147" font-family="Times,serif" font-size="14.00" fill="#000000">30</text>
</g>
<!-- C -->
<g id="node17" class="node">
<title>C</title>
<polygon fill="none" stroke="#000000" points="1439,-306.4 1385,-306.4 1385,-270.4 1439,-270.4 1439,-306.4"/>
<text text-anchor="middle" x="1412" y="-284.2" font-family="Times,serif" font-size="14.00" fill="#000000">C</text>
</g>
<!-- E -->
<g id="node18" class="node">
<title>E</title>
<polygon fill="none" stroke="#000000" points="1351,-213.6 1297,-213.6 1297,-177.6 1351,-177.6 1351,-213.6"/>
<text text-anchor="middle" x="1324" y="-191.4" font-family="Times,serif" font-size="14.00" fill="#000000">E</text>
</g>
<!-- C&#45;&#45;E -->
<g id="edge13" class="edge">
<title>C&#45;&#45;E</title>
<path fill="none" stroke="#000000" d="M1384.9277,-270.7022C1376.1262,-264.2602 1366.6615,-256.5448 1359,-248.4 1349.2042,-237.9862 1340.3316,-224.5332 1333.9708,-213.8131"/>
<text text-anchor="middle" x="1366" y="-235.8" font-family="Times,serif" font-size="14.00" fill="#000000">38</text>
</g>
<!-- n -->
<g id="node19" class="node">
<title>n</title>
<ellipse fill="none" stroke="#000000" cx="1487" cy="-195.6" rx="18" ry="18"/>
<text text-anchor="middle" x="1487" y="-191.4" font-family="Times,serif" font-size="14.00" fill="#000000">n</text>
</g>
<!-- C&#45;&#45;n -->
<g id="edge14" class="edge">
<title>C&#45;&#45;n</title>
<path fill="none" stroke="#000000" d="M1429.2312,-270.0056C1435.3073,-263.325 1442.0927,-255.6382 1448,-248.4 1458.0879,-236.0394 1468.806,-221.4072 1476.448,-210.6847"/>
<text text-anchor="middle" x="1468" y="-235.8" font-family="Times,serif" font-size="14.00" fill="#000000">67</text>
</g>
<!-- o -->
<g id="node20" class="node">
<title>o</title>
<ellipse fill="none" stroke="#000000" cx="1443" cy="-106.8" rx="18" ry="18"/>
<text text-anchor="middle" x="1443" y="-102.6" font-family="Times,serif" font-size="14.00" fill="#000000">o</text>
</g>
<!-- C&#45;&#45;o -->
<g id="edge15" class="edge">
<title>C&#45;&#45;o</title>
<path fill="none" stroke="#000000" d="M1415.0857,-270.3236C1421.0278,-235.5145 1433.9945,-159.5547 1439.9267,-124.8033"/>
<text text-anchor="middle" x="1438" y="-191.4" font-family="Times,serif" font-size="14.00" fill="#000000">79</text>
</g>
<!-- s -->
<g id="node21" class="node">
<title>s</title>
<ellipse fill="none" stroke="#000000" cx="1380" cy="-106.8" rx="18" ry="18"/>
<text text-anchor="middle" x="1380" y="-102.6" font-family="Times,serif" font-size="14.00" fill="#000000">s</text>
</g>
<!-- C&#45;&#45;s -->
<g id="edge16" class="edge">
<title>C&#45;&#45;s</title>
<path fill="none" stroke="#000000" d="M1408.8147,-270.3236C1402.6652,-235.4248 1389.2269,-159.1628 1383.1252,-124.5354"/>
<text text-anchor="middle" x="1406" y="-191.4" font-family="Times,serif" font-size="14.00" fill="#000000">29</text>
</g>
<!-- E&#45;&#45;s -->
<g id="edge19" class="edge">
<title>E&#45;&#45;s</title>
<path fill="none" stroke="#000000" d="M1335.6032,-177.2006C1345.855,-160.9443 1360.6345,-137.5081 1370.2775,-122.2171"/>
<text text-anchor="middle" x="1365" y="-147" font-family="Times,serif" font-size="14.00" fill="#000000">21</text>
</g>
<!-- U -->
<g id="node24" class="node">
<title>U</title>
<polygon fill="none" stroke="#000000" points="1326,-124.8 1272,-124.8 1272,-88.8 1326,-88.8 1326,-124.8"/>
<text text-anchor="middle" x="1299" y="-102.6" font-family="Times,serif" font-size="14.00" fill="#000000">U</text>
</g>
<!-- E&#45;&#45;U -->
<g id="edge18" class="edge">
<title>E&#45;&#45;U</title>
<path fill="none" stroke="#000000" d="M1318.82,-177.2006C1314.5008,-161.8587 1308.3812,-140.122 1304.0878,-124.872"/>
<text text-anchor="middle" x="1321" y="-147" font-family="Times,serif" font-size="14.00" fill="#000000">18</text>
</g>
<!-- n&#45;&#45;o -->
<g id="edge64" class="edge">
<title>n&#45;&#45;o</title>
<path fill="none" stroke="#000000" d="M1478.9297,-179.3127C1470.9907,-163.2903 1458.9404,-138.9706 1451.0191,-122.984"/>
<text text-anchor="middle" x="1476" y="-147" font-family="Times,serif" font-size="14.00" fill="#000000">64</text>
</g>
<!-- z -->
<g id="node56" class="node">
<title>z</title>
<ellipse fill="none" stroke="#000000" cx="1443" cy="-18" rx="18" ry="18"/>
<text text-anchor="middle" x="1443" y="-13.8" font-family="Times,serif" font-size="14.00" fill="#000000">z</text>
</g>
<!-- o&#45;&#45;z -->
<g id="edge65" class="edge">
<title>o&#45;&#45;z</title>
<path fill="none" stroke="#000000" d="M1443,-88.4006C1443,-73.0587 1443,-51.322 1443,-36.072"/>
<text text-anchor="middle" x="1450" y="-58.2" font-family="Times,serif" font-size="14.00" fill="#000000">26</text>
</g>
<!-- D -->
<g id="node22" class="node">
<title>D</title>
<polygon fill="none" stroke="#000000" points="496,-500 442,-500 442,-464 496,-464 496,-500"/>
<text text-anchor="middle" x="469" y="-477.8" font-family="Times,serif" font-size="14.00" fill="#000000">D</text>
</g>
<!-- e -->
<g id="node23" class="node">
<title>e</title>
<ellipse fill="none" stroke="#000000" cx="488" cy="-385.2" rx="18" ry="18"/>
<text text-anchor="middle" x="488" y="-381" font-family="Times,serif" font-size="14.00" fill="#000000">e</text>
</g>
<!-- D&#45;&#45;e -->
<g id="edge17" class="edge">
<title>D&#45;&#45;e</title>
<path fill="none" stroke="#000000" d="M467.4748,-463.8728C466.979,-452.6086 467.156,-437.9042 470,-425.2 471.8632,-416.877 475.5414,-408.1804 479.0899,-401.0301"/>
<text text-anchor="middle" x="477" y="-429.4" font-family="Times,serif" font-size="14.00" fill="#000000">25</text>
</g>
<!-- m -->
<g id="node28" class="node">
<title>m</title>
<ellipse fill="none" stroke="#000000" cx="539" cy="-288.4" rx="18.5974" ry="18.5974"/>
<text text-anchor="middle" x="539" y="-284.2" font-family="Times,serif" font-size="14.00" fill="#000000">m</text>
</g>
<!-- e&#45;&#45;m -->
<g id="edge56" class="edge">
<title>e&#45;&#45;m</title>
<path fill="none" stroke="#000000" d="M494.9571,-368.5205C499.9036,-357.0533 506.9045,-341.5774 514,-328.4 518.426,-320.1802 523.8677,-311.349 528.5428,-304.081"/>
<text text-anchor="middle" x="521" y="-332.6" font-family="Times,serif" font-size="14.00" fill="#000000">66</text>
</g>
<!-- F -->
<g id="node25" class="node">
<title>F</title>
<polygon fill="none" stroke="#000000" points="594,-500 540,-500 540,-464 594,-464 594,-500"/>
<text text-anchor="middle" x="567" y="-477.8" font-family="Times,serif" font-size="14.00" fill="#000000">F</text>
</g>
<!-- F&#45;&#45;e -->
<g id="edge22" class="edge">
<title>F&#45;&#45;e</title>
<path fill="none" stroke="#000000" d="M539.7944,-469.0202C528.2903,-462.3485 515.5929,-453.238 507,-442 498.2839,-430.601 493.4437,-414.9861 490.8334,-403.013"/>
<text text-anchor="middle" x="517.5" y="-429.4" font-family="Times,serif" font-size="14.00" fill="#000000">103</text>
</g>
<!-- P -->
<g id="node26" class="node">
<title>P</title>
<polygon fill="none" stroke="#000000" points="678,-403.2 624,-403.2 624,-367.2 678,-367.2 678,-403.2"/>
<text text-anchor="middle" x="651" y="-381" font-family="Times,serif" font-size="14.00" fill="#000000">P</text>
</g>
<!-- F&#45;&#45;P -->
<g id="edge20" class="edge">
<title>F&#45;&#45;P</title>
<path fill="none" stroke="#000000" d="M585.6608,-463.6555C592.2426,-456.9796 599.5947,-449.283 606,-442 617.0504,-429.4356 628.7648,-414.5953 637.4706,-403.2353"/>
<text text-anchor="middle" x="628" y="-429.4" font-family="Times,serif" font-size="14.00" fill="#000000">60</text>
</g>
<!-- b -->
<g id="node27" class="node">
<title>b</title>
<ellipse fill="none" stroke="#000000" cx="594" cy="-288.4" rx="18" ry="18"/>
<text text-anchor="middle" x="594" y="-284.2" font-family="Times,serif" font-size="14.00" fill="#000000">b</text>
</g>
<!-- F&#45;&#45;b -->
<g id="edge21" class="edge">
<title>F&#45;&#45;b</title>
<path fill="none" stroke="#000000" d="M569.5401,-463.7866C574.6992,-426.7939 586.3495,-343.2572 591.4863,-306.424"/>
<text text-anchor="middle" x="591" y="-381" font-family="Times,serif" font-size="14.00" fill="#000000">63</text>
</g>
<!-- F&#45;&#45;m -->
<g id="edge23" class="edge">
<title>F&#45;&#45;m</title>
<path fill="none" stroke="#000000" d="M564.3658,-463.7866C559.0429,-426.9821 547.0567,-344.1062 541.6886,-306.9899"/>
<text text-anchor="middle" x="563" y="-381" font-family="Times,serif" font-size="14.00" fill="#000000">65</text>
</g>
<!-- P&#45;&#45;b -->
<g id="edge45" class="edge">
<title>P&#45;&#45;b</title>
<path fill="none" stroke="#000000" d="M640.2787,-366.9927C629.5721,-348.8101 613.2917,-321.1621 603.1679,-303.9694"/>
<text text-anchor="middle" x="633" y="-332.6" font-family="Times,serif" font-size="14.00" fill="#000000">17</text>
</g>
<!-- T -->
<g id="node39" class="node">
<title>T</title>
<polygon fill="none" stroke="#000000" points="701,-306.4 647,-306.4 647,-270.4 701,-270.4 701,-306.4"/>
<text text-anchor="middle" x="674" y="-284.2" font-family="Times,serif" font-size="14.00" fill="#000000">T</text>
</g>
<!-- P&#45;&#45;T -->
<g id="edge43" class="edge">
<title>P&#45;&#45;T</title>
<path fill="none" stroke="#000000" d="M655.3261,-366.9927C659.4382,-349.6864 665.5877,-323.805 669.6933,-306.5257"/>
<text text-anchor="middle" x="671" y="-332.6" font-family="Times,serif" font-size="14.00" fill="#000000">16</text>
</g>
<!-- X -->
<g id="node40" class="node">
<title>X</title>
<polygon fill="none" stroke="#000000" points="764,-213.6 710,-213.6 710,-177.6 764,-177.6 764,-213.6"/>
<text text-anchor="middle" x="737" y="-191.4" font-family="Times,serif" font-size="14.00" fill="#000000">X</text>
</g>
<!-- P&#45;&#45;X -->
<g id="edge44" class="edge">
<title>P&#45;&#45;X</title>
<path fill="none" stroke="#000000" d="M669.056,-367.0941C682.2782,-352.8377 699.6527,-331.852 710,-310.4 725.3884,-278.4967 732.3088,-237.2858 735.1786,-213.9167"/>
<text text-anchor="middle" x="733" y="-284.2" font-family="Times,serif" font-size="14.00" fill="#000000">62</text>
</g>
<!-- b&#45;&#45;l -->
<g id="edge54" class="edge">
<title>b&#45;&#45;l</title>
<path fill="none" stroke="#000000" d="M583.7173,-273.4901C571.7742,-256.1726 552.1894,-227.7746 540.2572,-210.4729"/>
<text text-anchor="middle" x="573" y="-235.8" font-family="Times,serif" font-size="14.00" fill="#000000">14</text>
</g>
<!-- G -->
<g id="node29" class="node">
<title>G</title>
<polygon fill="none" stroke="#000000" points="1207,-213.6 1153,-213.6 1153,-177.6 1207,-177.6 1207,-213.6"/>
<text text-anchor="middle" x="1180" y="-191.4" font-family="Times,serif" font-size="14.00" fill="#000000">G</text>
</g>
<!-- k -->
<g id="node30" class="node">
<title>k</title>
<ellipse fill="none" stroke="#000000" cx="1220" cy="-106.8" rx="18" ry="18"/>
<text text-anchor="middle" x="1220" y="-102.6" font-family="Times,serif" font-size="14.00" fill="#000000">k</text>
</g>
<!-- G&#45;&#45;k -->
<g id="edge24" class="edge">
<title>G&#45;&#45;k</title>
<path fill="none" stroke="#000000" d="M1188.288,-177.2006C1195.4276,-161.3507 1205.6417,-138.6755 1212.532,-123.3789"/>
<text text-anchor="middle" x="1207.5" y="-147" font-family="Times,serif" font-size="14.00" fill="#000000">7</text>
</g>
<!-- G&#45;&#45;x -->
<g id="edge25" class="edge">
<title>G&#45;&#45;x</title>
<path fill="none" stroke="#000000" d="M1167.7752,-177.2006C1156.9067,-160.8427 1141.2081,-137.2149 1131.0535,-121.9313"/>
<text text-anchor="middle" x="1163" y="-147" font-family="Times,serif" font-size="14.00" fill="#000000">37</text>
</g>
<!-- I -->
<g id="node33" class="node">
<title>I</title>
<polygon fill="none" stroke="#000000" points="1796,-403.2 1742,-403.2 1742,-367.2 1796,-367.2 1796,-403.2"/>
<text text-anchor="middle" x="1769" y="-381" font-family="Times,serif" font-size="14.00" fill="#000000">I</text>
</g>
<!-- Y -->
<g id="node34" class="node">
<title>Y</title>
<polygon fill="none" stroke="#000000" points="1783,-306.4 1729,-306.4 1729,-270.4 1783,-270.4 1783,-306.4"/>
<text text-anchor="middle" x="1756" y="-284.2" font-family="Times,serif" font-size="14.00" fill="#000000">Y</text>
</g>
<!-- I&#45;&#45;Y -->
<g id="edge28" class="edge">
<title>I&#45;&#45;Y</title>
<path fill="none" stroke="#000000" d="M1766.5548,-366.9927C1764.2306,-349.6864 1760.7548,-323.805 1758.4342,-306.5257"/>
<text text-anchor="middle" x="1771" y="-332.6" font-family="Times,serif" font-size="14.00" fill="#000000">10</text>
</g>
<!-- w -->
<g id="node35" class="node">
<title>w</title>
<ellipse fill="none" stroke="#000000" cx="1830" cy="-288.4" rx="18.0157" ry="18.0157"/>
<text text-anchor="middle" x="1830" y="-284.2" font-family="Times,serif" font-size="14.00" fill="#000000">w</text>
</g>
<!-- I&#45;&#45;w -->
<g id="edge29" class="edge">
<title>I&#45;&#45;w</title>
<path fill="none" stroke="#000000" d="M1780.4736,-366.9927C1792.0007,-348.7006 1809.5646,-320.8286 1820.3838,-303.6598"/>
<text text-anchor="middle" x="1807.5" y="-332.6" font-family="Times,serif" font-size="14.00" fill="#000000">9</text>
</g>
<!-- d -->
<g id="node37" class="node">
<title>d</title>
<ellipse fill="none" stroke="#000000" cx="1720" cy="-195.6" rx="18" ry="18"/>
<text text-anchor="middle" x="1720" y="-191.4" font-family="Times,serif" font-size="14.00" fill="#000000">d</text>
</g>
<!-- Y&#45;&#45;d -->
<g id="edge52" class="edge">
<title>Y&#45;&#45;d</title>
<path fill="none" stroke="#000000" d="M1748.8876,-270.0657C1742.4123,-253.374 1732.9261,-228.9206 1726.6121,-212.6446"/>
<text text-anchor="middle" x="1748" y="-235.8" font-family="Times,serif" font-size="14.00" fill="#000000">73</text>
</g>
<!-- J -->
<g id="node36" class="node">
<title>J</title>
<polygon fill="none" stroke="#000000" points="1724,-403.2 1670,-403.2 1670,-367.2 1724,-367.2 1724,-403.2"/>
<text text-anchor="middle" x="1697" y="-381" font-family="Times,serif" font-size="14.00" fill="#000000">J</text>
</g>
<!-- J&#45;&#45;g -->
<g id="edge32" class="edge">
<title>J&#45;&#45;g</title>
<path fill="none" stroke="#000000" d="M1683.3459,-366.8349C1678.5964,-360.1571 1673.3683,-352.4645 1669,-345.2 1661.126,-332.1057 1653.3141,-316.6233 1647.7855,-305.1325"/>
<text text-anchor="middle" x="1676" y="-332.6" font-family="Times,serif" font-size="14.00" fill="#000000">47</text>
</g>
<!-- J&#45;&#45;Y -->
<g id="edge30" class="edge">
<title>J&#45;&#45;Y</title>
<path fill="none" stroke="#000000" d="M1708.0974,-366.9927C1718.6457,-349.6864 1734.4205,-323.805 1744.9523,-306.5257"/>
<text text-anchor="middle" x="1738" y="-332.6" font-family="Times,serif" font-size="14.00" fill="#000000">90</text>
</g>
<!-- J&#45;&#45;d -->
<g id="edge31" class="edge">
<title>J&#45;&#45;d</title>
<path fill="none" stroke="#000000" d="M1697.7013,-367.0148C1698.7573,-343.6446 1701.1691,-301.8559 1706,-266.4 1708.4866,-248.15 1712.7337,-227.5143 1715.8995,-213.2503"/>
<text text-anchor="middle" x="1713" y="-284.2" font-family="Times,serif" font-size="14.00" fill="#000000">37</text>
</g>
<!-- K -->
<g id="node38" class="node">
<title>K</title>
<polygon fill="none" stroke="#000000" points="768,-500 714,-500 714,-464 768,-464 768,-500"/>
<text text-anchor="middle" x="741" y="-477.8" font-family="Times,serif" font-size="14.00" fill="#000000">K</text>
</g>
<!-- K&#45;&#45;P -->
<g id="edge33" class="edge">
<title>K&#45;&#45;P</title>
<path fill="none" stroke="#000000" d="M713.9021,-468.7948C702.073,-462.0266 688.7156,-452.9021 679,-442 668.979,-430.7552 661.6646,-415.2788 657.0299,-403.3203"/>
<text text-anchor="middle" x="689.5" y="-429.4" font-family="Times,serif" font-size="14.00" fill="#000000">102</text>
</g>
<!-- K&#45;&#45;T -->
<g id="edge34" class="edge">
<title>K&#45;&#45;T</title>
<path fill="none" stroke="#000000" d="M734.6968,-463.7866C721.8946,-426.7939 692.9847,-343.2572 680.2376,-306.424"/>
<text text-anchor="middle" x="722" y="-381" font-family="Times,serif" font-size="14.00" fill="#000000">88</text>
</g>
<!-- K&#45;&#45;X -->
<g id="edge35" class="edge">
<title>K&#45;&#45;X</title>
<path fill="none" stroke="#000000" d="M765.3041,-463.7388C781.1867,-450.1545 800.504,-430.0675 809,-407.2 830.8079,-348.503 839.1699,-323.7358 814,-266.4 803.8534,-243.2865 782.0246,-224.3999 764.1911,-211.9643"/>
<text text-anchor="middle" x="837" y="-332.6" font-family="Times,serif" font-size="14.00" fill="#000000">46</text>
</g>
<!-- j -->
<g id="node41" class="node">
<title>j</title>
<ellipse fill="none" stroke="#000000" cx="782" cy="-385.2" rx="18" ry="18"/>
<text text-anchor="middle" x="782" y="-381" font-family="Times,serif" font-size="14.00" fill="#000000">j</text>
</g>
<!-- K&#45;&#45;j -->
<g id="edge36" class="edge">
<title>K&#45;&#45;j</title>
<path fill="none" stroke="#000000" d="M748.7118,-463.7927C756.2275,-446.0482 767.5615,-419.289 774.8715,-402.0302"/>
<text text-anchor="middle" x="771" y="-429.4" font-family="Times,serif" font-size="14.00" fill="#000000">21</text>
</g>
<!-- T&#45;&#45;X -->
<g id="edge48" class="edge">
<title>T&#45;&#45;X</title>
<path fill="none" stroke="#000000" d="M684.5446,-270.1722C691.2503,-258.8701 700.2833,-244.1613 709,-231.6 713.153,-225.6153 717.9372,-219.2827 722.3626,-213.6252"/>
<text text-anchor="middle" x="716" y="-235.8" font-family="Times,serif" font-size="14.00" fill="#000000">48</text>
</g>
<!-- u -->
<g id="node55" class="node">
<title>u</title>
<ellipse fill="none" stroke="#000000" cx="787" cy="-288.4" rx="18" ry="18"/>
<text text-anchor="middle" x="787" y="-284.2" font-family="Times,serif" font-size="14.00" fill="#000000">u</text>
</g>
<!-- j&#45;&#45;u -->
<g id="edge62" class="edge">
<title>j&#45;&#45;u</title>
<path fill="none" stroke="#000000" d="M782.9405,-366.9927C783.8344,-349.6864 785.1712,-323.805 786.0638,-306.5257"/>
<text text-anchor="middle" x="792" y="-332.6" font-family="Times,serif" font-size="14.00" fill="#000000">14</text>
</g>
<!-- L -->
<g id="node42" class="node">
<title>L</title>
<polygon fill="none" stroke="#000000" points="965,-403.2 911,-403.2 911,-367.2 965,-367.2 965,-403.2"/>
<text text-anchor="middle" x="938" y="-381" font-family="Times,serif" font-size="14.00" fill="#000000">L</text>
</g>
<!-- L&#45;&#45;R -->
<g id="edge37" class="edge">
<title>L&#45;&#45;R</title>
<path fill="none" stroke="#000000" d="M937.8119,-366.9927C937.6331,-349.6864 937.3658,-323.805 937.1872,-306.5257"/>
<text text-anchor="middle" x="945" y="-332.6" font-family="Times,serif" font-size="14.00" fill="#000000">12</text>
</g>
<!-- M -->
<g id="node43" class="node">
<title>M</title>
<polygon fill="none" stroke="#000000" points="1279,-213.6 1225,-213.6 1225,-177.6 1279,-177.6 1279,-213.6"/>
<text text-anchor="middle" x="1252" y="-191.4" font-family="Times,serif" font-size="14.00" fill="#000000">M</text>
</g>
<!-- M&#45;&#45;U -->
<g id="edge38" class="edge">
<title>M&#45;&#45;U</title>
<path fill="none" stroke="#000000" d="M1261.7384,-177.2006C1269.8586,-161.8587 1281.3634,-140.122 1289.4349,-124.872"/>
<text text-anchor="middle" x="1287" y="-147" font-family="Times,serif" font-size="14.00" fill="#000000">24</text>
</g>
<!-- M&#45;&#45;k -->
<g id="edge39" class="edge">
<title>M&#45;&#45;k</title>
<path fill="none" stroke="#000000" d="M1245.3696,-177.2006C1239.7311,-161.5539 1231.6958,-139.2558 1226.1877,-123.9709"/>
<text text-anchor="middle" x="1246" y="-147" font-family="Times,serif" font-size="14.00" fill="#000000">23</text>
</g>
<!-- N -->
<g id="node44" class="node">
<title>N</title>
<polygon fill="none" stroke="#000000" points="321,-500 267,-500 267,-464 321,-464 321,-500"/>
<text text-anchor="middle" x="294" y="-477.8" font-family="Times,serif" font-size="14.00" fill="#000000">N</text>
</g>
<!-- N&#45;&#45;O -->
<g id="edge40" class="edge">
<title>N&#45;&#45;O</title>
<path fill="none" stroke="#000000" d="M305.0974,-463.7927C315.6457,-446.4864 331.4205,-420.605 341.9523,-403.3257"/>
<text text-anchor="middle" x="335" y="-429.4" font-family="Times,serif" font-size="14.00" fill="#000000">14</text>
</g>
<!-- i -->
<g id="node45" class="node">
<title>i</title>
<ellipse fill="none" stroke="#000000" cx="240" cy="-385.2" rx="18" ry="18"/>
<text text-anchor="middle" x="240" y="-381" font-family="Times,serif" font-size="14.00" fill="#000000">i</text>
</g>
<!-- N&#45;&#45;i -->
<g id="edge41" class="edge">
<title>N&#45;&#45;i</title>
<path fill="none" stroke="#000000" d="M280.1717,-463.7372C275.4058,-457.069 270.212,-449.3563 266,-442 258.5635,-429.012 251.5892,-413.5213 246.7397,-402.0002"/>
<text text-anchor="middle" x="273" y="-429.4" font-family="Times,serif" font-size="14.00" fill="#000000">47</text>
</g>
<!-- v -->
<g id="node46" class="node">
<title>v</title>
<ellipse fill="none" stroke="#000000" cx="278" cy="-288.4" rx="18" ry="18"/>
<text text-anchor="middle" x="278" y="-284.2" font-family="Times,serif" font-size="14.00" fill="#000000">v</text>
</g>
<!-- N&#45;&#45;v -->
<g id="edge42" class="edge">
<title>N&#45;&#45;v</title>
<path fill="none" stroke="#000000" d="M292.4948,-463.7866C289.4375,-426.7939 282.5336,-343.2572 279.4896,-306.424"/>
<text text-anchor="middle" x="295" y="-381" font-family="Times,serif" font-size="14.00" fill="#000000">71</text>
</g>
<!-- i&#45;&#45;v -->
<g id="edge60" class="edge">
<title>i&#45;&#45;v</title>
<path fill="none" stroke="#000000" d="M246.6191,-368.3387C253.5512,-350.6801 264.3779,-323.1006 271.3293,-305.3928"/>
<text text-anchor="middle" x="269" y="-332.6" font-family="Times,serif" font-size="14.00" fill="#000000">28</text>
</g>
<!-- y -->
<g id="node52" class="node">
<title>y</title>
<ellipse fill="none" stroke="#000000" cx="190" cy="-288.4" rx="18" ry="18"/>
<text text-anchor="middle" x="190" y="-284.2" font-family="Times,serif" font-size="14.00" fill="#000000">y</text>
</g>
<!-- i&#45;&#45;y -->
<g id="edge61" class="edge">
<title>i&#45;&#45;y</title>
<path fill="none" stroke="#000000" d="M231.5182,-368.7792C222.2681,-350.871 207.557,-322.3904 198.3566,-304.5783"/>
<text text-anchor="middle" x="225" y="-332.6" font-family="Times,serif" font-size="14.00" fill="#000000">16</text>
</g>
<!-- S -->
<g id="node47" class="node">
<title>S</title>
<polygon fill="none" stroke="#000000" points="126,-500 72,-500 72,-464 126,-464 126,-500"/>
<text text-anchor="middle" x="99" y="-477.8" font-family="Times,serif" font-size="14.00" fill="#000000">S</text>
</g>
<!-- c -->
<g id="node48" class="node">
<title>c</title>
<ellipse fill="none" stroke="#000000" cx="136" cy="-385.2" rx="18" ry="18"/>
<text text-anchor="middle" x="136" y="-381" font-family="Times,serif" font-size="14.00" fill="#000000">c</text>
</g>
<!-- S&#45;&#45;c -->
<g id="edge46" class="edge">
<title>S&#45;&#45;c</title>
<path fill="none" stroke="#000000" d="M105.9594,-463.7927C112.7419,-446.0482 122.9701,-419.289 129.567,-402.0302"/>
<text text-anchor="middle" x="127" y="-429.4" font-family="Times,serif" font-size="14.00" fill="#000000">11</text>
</g>
<!-- h -->
<g id="node49" class="node">
<title>h</title>
<ellipse fill="none" stroke="#000000" cx="80" cy="-385.2" rx="18" ry="18"/>
<text text-anchor="middle" x="80" y="-381" font-family="Times,serif" font-size="14.00" fill="#000000">h</text>
</g>
<!-- S&#45;&#45;h -->
<g id="edge47" class="edge">
<title>S&#45;&#45;h</title>
<path fill="none" stroke="#000000" d="M88.9472,-463.8207C85.774,-457.1604 82.6636,-449.4313 81,-442 78.156,-429.2958 77.979,-414.5914 78.4748,-403.3272"/>
<text text-anchor="middle" x="91.5" y="-429.4" font-family="Times,serif" font-size="14.00" fill="#000000">117</text>
</g>
<!-- c&#45;&#45;y -->
<g id="edge55" class="edge">
<title>c&#45;&#45;y</title>
<path fill="none" stroke="#000000" d="M142.7397,-368.3998C147.5892,-356.8787 154.5635,-341.388 162,-328.4 167.0543,-319.5724 173.5226,-310.2317 178.9686,-302.7984"/>
<text text-anchor="middle" x="169" y="-332.6" font-family="Times,serif" font-size="14.00" fill="#000000">10</text>
</g>
<!-- h&#45;&#45;t -->
<g id="edge59" class="edge">
<title>h&#45;&#45;t</title>
<path fill="none" stroke="#000000" d="M73.9215,-367.8941C67.7328,-350.2746 58.1955,-323.1213 52.0259,-305.5561"/>
<text text-anchor="middle" x="73" y="-332.6" font-family="Times,serif" font-size="14.00" fill="#000000">54</text>
</g>
<!-- V -->
<g id="node50" class="node">
<title>V</title>
<polygon fill="none" stroke="#000000" points="1868,-403.2 1814,-403.2 1814,-367.2 1868,-367.2 1868,-403.2"/>
<text text-anchor="middle" x="1841" y="-381" font-family="Times,serif" font-size="14.00" fill="#000000">V</text>
</g>
<!-- V&#45;&#45;w -->
<g id="edge49" class="edge">
<title>V&#45;&#45;w</title>
<path fill="none" stroke="#000000" d="M1838.931,-366.9927C1836.9644,-349.6864 1834.0233,-323.805 1832.0597,-306.5257"/>
<text text-anchor="middle" x="1844" y="-332.6" font-family="Times,serif" font-size="14.00" fill="#000000">17</text>
</g>
<!-- W -->
<g id="node51" class="node">
<title>W</title>
<polygon fill="none" stroke="#000000" points="202,-500 148,-500 148,-464 202,-464 202,-500"/>
<text text-anchor="middle" x="175" y="-477.8" font-family="Times,serif" font-size="14.00" fill="#000000">W</text>
</g>
<!-- W&#45;&#45;c -->
<g id="edge50" class="edge">
<title>W&#45;&#45;c</title>
<path fill="none" stroke="#000000" d="M167.6644,-463.7927C160.5153,-446.0482 149.7342,-419.289 142.7807,-402.0302"/>
<text text-anchor="middle" x="165" y="-429.4" font-family="Times,serif" font-size="14.00" fill="#000000">47</text>
</g>
<!-- W&#45;&#45;y -->
<g id="edge51" class="edge">
<title>W&#45;&#45;y</title>
<path fill="none" stroke="#000000" d="M176.4112,-463.7866C179.2773,-426.7939 185.7497,-343.2572 188.6035,-306.424"/>
<text text-anchor="middle" x="191" y="-381" font-family="Times,serif" font-size="14.00" fill="#000000">41</text>
</g>
<!-- a -->
<g id="node53" class="node">
<title>a</title>
<ellipse fill="none" stroke="#000000" cx="1507" cy="-288.4" rx="18" ry="18"/>
<text text-anchor="middle" x="1507" y="-284.2" font-family="Times,serif" font-size="14.00" fill="#000000">a</text>
</g>
<!-- a&#45;&#45;n -->
<g id="edge53" class="edge">
<title>a&#45;&#45;n</title>
<path fill="none" stroke="#000000" d="M1503.1438,-270.5072C1499.6023,-254.0745 1494.3822,-229.8532 1490.8444,-213.4378"/>
<text text-anchor="middle" x="1506" y="-235.8" font-family="Times,serif" font-size="14.00" fill="#000000">26</text>
</g>
<!-- f -->
<g id="node54" class="node">
<title>f</title>
<ellipse fill="none" stroke="#000000" cx="1115" cy="-288.4" rx="18" ry="18"/>
<text text-anchor="middle" x="1115" y="-284.2" font-family="Times,serif" font-size="14.00" fill="#000000">f</text>
</g>
<!-- f&#45;&#45;q -->
<g id="edge57" class="edge">
<title>f&#45;&#45;q</title>
<path fill="none" stroke="#000000" d="M1106.1789,-272.6577C1096.6168,-255.593 1081.4434,-228.5144 1071.8644,-211.4195"/>
<text text-anchor="middle" x="1100" y="-235.8" font-family="Times,serif" font-size="14.00" fill="#000000">16</text>
</g>
<!-- f&#45;&#45;x -->
<g id="edge58" class="edge">
<title>f&#45;&#45;x</title>
<path fill="none" stroke="#000000" d="M1115.5972,-270.3236C1116.7473,-235.5145 1119.257,-159.5547 1120.4052,-124.8033"/>
<text text-anchor="middle" x="1126" y="-191.4" font-family="Times,serif" font-size="14.00" fill="#000000">26</text>
</g>
</g>
</svg>
